<mxfile host="app.diagrams.net" agent="Mozilla/5.0 (X11; Linux x86_64; rv:143.0) Gecko/20100101 Firefox/143.0" version="28.2.5">
  <diagram name="Page-1" id="FtqPRwKNyyrF7hTK9cLB">
    <mxGraphModel dx="648" dy="364" grid="1" gridSize="10" guides="1" tooltips="1" connect="1" arrows="1" fold="1" page="1" pageScale="1" pageWidth="827" pageHeight="1169" math="1" shadow="0">
      <root>
        <mxCell id="0" />
        <mxCell id="1" parent="0" />
        <mxCell id="8TD7Sc-Al0YVAq8Xacdx-14" value="$$510\ \Omega$$" style="text;align=left;verticalAlign=middle;rounded=0;fontFamily=Helvetica;fontSize=11;fontColor=default;labelBackgroundColor=default;convertToSvg=0;html=1;" parent="1" vertex="1">
          <mxGeometry x="414" y="100" width="60" height="20" as="geometry" />
        </mxCell>
        <mxCell id="8TD7Sc-Al0YVAq8Xacdx-13" value="$$820\ \Omega$$" style="text;align=left;verticalAlign=middle;rounded=0;fontFamily=Helvetica;fontSize=11;fontColor=default;labelBackgroundColor=default;convertToSvg=0;html=1;" parent="1" vertex="1">
          <mxGeometry x="414" y="220" width="60" height="20" as="geometry" />
        </mxCell>
        <mxCell id="0l5WWvCzSNFHq4BfdhfD-18" value="" style="edgeStyle=orthogonalEdgeStyle;shape=connector;rounded=0;orthogonalLoop=1;jettySize=auto;html=1;strokeColor=default;align=center;verticalAlign=middle;fontFamily=Helvetica;fontSize=11;fontColor=default;labelBackgroundColor=default;endArrow=none;endFill=0;" parent="1" source="8TD7Sc-Al0YVAq8Xacdx-1" target="0l5WWvCzSNFHq4BfdhfD-17" edge="1">
          <mxGeometry relative="1" as="geometry">
            <Array as="points">
              <mxPoint x="160" y="288" />
            </Array>
          </mxGeometry>
        </mxCell>
        <mxCell id="8TD7Sc-Al0YVAq8Xacdx-1" value="" style="pointerEvents=1;verticalLabelPosition=middle;shadow=0;dashed=0;align=center;html=1;verticalAlign=top;shape=mxgraph.electrical.miscellaneous.batteryStack;rotation=-90;horizontal=1;textDirection=vertical-lr;labelPosition=center;spacingRight=0;spacing=0;spacingTop=-3;spacingLeft=30;convertToSvg=1;" parent="1" vertex="1">
          <mxGeometry x="130" y="120" width="60" height="60" as="geometry" />
        </mxCell>
        <mxCell id="0l5WWvCzSNFHq4BfdhfD-37" style="edgeStyle=orthogonalEdgeStyle;shape=connector;rounded=0;orthogonalLoop=1;jettySize=auto;html=1;exitX=1;exitY=0.5;exitDx=0;exitDy=0;exitPerimeter=0;strokeColor=default;align=center;verticalAlign=middle;fontFamily=Helvetica;fontSize=11;fontColor=default;labelBackgroundColor=default;endArrow=none;endFill=0;" parent="1" source="8TD7Sc-Al0YVAq8Xacdx-2" target="0l5WWvCzSNFHq4BfdhfD-34" edge="1">
          <mxGeometry relative="1" as="geometry" />
        </mxCell>
        <mxCell id="8TD7Sc-Al0YVAq8Xacdx-2" value="R&lt;sub&gt;1&lt;/sub&gt;" style="pointerEvents=1;verticalLabelPosition=top;shadow=0;dashed=0;align=center;html=1;verticalAlign=middle;shape=mxgraph.electrical.resistors.resistor_2;labelPosition=center;convertToSvg=1;rotation=90;horizontal=0;textDirection=ltr;spacing=0;" parent="1" vertex="1">
          <mxGeometry x="350" y="100" width="100" height="20" as="geometry" />
        </mxCell>
        <mxCell id="0l5WWvCzSNFHq4BfdhfD-35" style="edgeStyle=orthogonalEdgeStyle;shape=connector;rounded=0;orthogonalLoop=1;jettySize=auto;html=1;exitX=0;exitY=0.5;exitDx=0;exitDy=0;exitPerimeter=0;strokeColor=default;align=center;verticalAlign=middle;fontFamily=Helvetica;fontSize=11;fontColor=default;labelBackgroundColor=default;endArrow=none;endFill=0;" parent="1" source="8TD7Sc-Al0YVAq8Xacdx-3" target="0l5WWvCzSNFHq4BfdhfD-34" edge="1">
          <mxGeometry relative="1" as="geometry" />
        </mxCell>
        <mxCell id="8TD7Sc-Al0YVAq8Xacdx-3" value="R&lt;sub&gt;2&lt;/sub&gt;" style="pointerEvents=1;verticalLabelPosition=top;shadow=0;dashed=0;align=center;html=1;verticalAlign=middle;shape=mxgraph.electrical.resistors.resistor_2;labelPosition=center;convertToSvg=1;rotation=90;horizontal=0;textDirection=ltr;spacing=0;" parent="1" vertex="1">
          <mxGeometry x="350" y="220" width="100" height="20" as="geometry" />
        </mxCell>
        <mxCell id="8TD7Sc-Al0YVAq8Xacdx-16" value="6 V" style="text;html=1;align=right;verticalAlign=middle;whiteSpace=wrap;rounded=0;fontFamily=Helvetica;fontSize=11;fontColor=default;labelBackgroundColor=default;spacingLeft=0;spacingTop=0;spacingRight=2;convertToSvg=1;" parent="1" vertex="1">
          <mxGeometry x="70" y="150" width="60" height="20" as="geometry" />
        </mxCell>
        <mxCell id="aCz2mAw2sOZBDd4RhNVQ-1" value="V&lt;sub&gt;S&lt;/sub&gt;" style="text;html=1;align=right;verticalAlign=middle;whiteSpace=wrap;rounded=0;fontFamily=Helvetica;fontSize=11;fontColor=default;labelBackgroundColor=default;spacingLeft=0;spacingTop=0;spacingRight=2;convertToSvg=1;" parent="1" vertex="1">
          <mxGeometry x="70" y="130" width="60" height="20" as="geometry" />
        </mxCell>
        <mxCell id="0l5WWvCzSNFHq4BfdhfD-1" value="" style="verticalLabelPosition=bottom;shadow=0;dashed=0;align=center;html=1;verticalAlign=top;strokeWidth=1;shape=ellipse;perimeter=ellipsePerimeter;" parent="1" vertex="1">
          <mxGeometry x="500" y="280" width="15" height="15" as="geometry" />
        </mxCell>
        <mxCell id="0l5WWvCzSNFHq4BfdhfD-6" style="edgeStyle=orthogonalEdgeStyle;rounded=0;orthogonalLoop=1;jettySize=auto;html=1;entryX=1;entryY=0.5;entryDx=0;entryDy=0;entryPerimeter=0;endArrow=none;endFill=0;" parent="1" source="0l5WWvCzSNFHq4BfdhfD-17" target="8TD7Sc-Al0YVAq8Xacdx-3" edge="1">
          <mxGeometry relative="1" as="geometry">
            <Array as="points" />
          </mxGeometry>
        </mxCell>
        <mxCell id="0l5WWvCzSNFHq4BfdhfD-36" style="edgeStyle=orthogonalEdgeStyle;shape=connector;rounded=0;orthogonalLoop=1;jettySize=auto;html=1;exitX=0;exitY=0.5;exitDx=0;exitDy=0;strokeColor=default;align=center;verticalAlign=middle;fontFamily=Helvetica;fontSize=11;fontColor=default;labelBackgroundColor=default;endArrow=none;endFill=0;entryX=0.511;entryY=0.063;entryDx=0;entryDy=0;entryPerimeter=0;" parent="1" source="0l5WWvCzSNFHq4BfdhfD-7" target="0l5WWvCzSNFHq4BfdhfD-34" edge="1">
          <mxGeometry relative="1" as="geometry" />
        </mxCell>
        <mxCell id="0l5WWvCzSNFHq4BfdhfD-7" value="" style="verticalLabelPosition=bottom;shadow=0;dashed=0;align=center;html=1;verticalAlign=top;strokeWidth=1;shape=ellipse;perimeter=ellipsePerimeter;fontFamily=Helvetica;fontSize=11;fontColor=default;labelBackgroundColor=default;" parent="1" vertex="1">
          <mxGeometry x="500" y="162" width="15" height="15" as="geometry" />
        </mxCell>
        <mxCell id="0l5WWvCzSNFHq4BfdhfD-19" value="" style="edgeStyle=orthogonalEdgeStyle;rounded=0;orthogonalLoop=1;jettySize=auto;html=1;entryDx=0;entryDy=0;entryPerimeter=0;endArrow=none;endFill=0;" parent="1" source="0l5WWvCzSNFHq4BfdhfD-1" target="0l5WWvCzSNFHq4BfdhfD-17" edge="1">
          <mxGeometry relative="1" as="geometry">
            <mxPoint x="500" y="288" as="sourcePoint" />
            <mxPoint x="400" y="280" as="targetPoint" />
            <Array as="points">
              <mxPoint x="455" y="288" />
            </Array>
          </mxGeometry>
        </mxCell>
        <mxCell id="0l5WWvCzSNFHq4BfdhfD-17" value="" style="shape=waypoint;sketch=0;size=6;pointerEvents=1;points=[];fillColor=default;resizable=0;rotatable=0;perimeter=centerPerimeter;snapToPoint=1;verticalAlign=top;shadow=0;dashed=0;horizontal=1;textDirection=vertical-lr;spacingRight=0;spacing=0;spacingTop=-3;spacingLeft=30;" parent="1" vertex="1">
          <mxGeometry x="390" y="277.5" width="20" height="20" as="geometry" />
        </mxCell>
        <mxCell id="0l5WWvCzSNFHq4BfdhfD-22" style="edgeStyle=orthogonalEdgeStyle;shape=connector;rounded=0;orthogonalLoop=1;jettySize=auto;html=1;exitX=1;exitY=0.5;exitDx=0;exitDy=0;entryX=0;entryY=0.5;entryDx=0;entryDy=0;entryPerimeter=0;strokeColor=default;align=center;verticalAlign=middle;fontFamily=Helvetica;fontSize=11;fontColor=default;labelBackgroundColor=default;endArrow=none;endFill=0;" parent="1" source="8TD7Sc-Al0YVAq8Xacdx-1" target="8TD7Sc-Al0YVAq8Xacdx-2" edge="1">
          <mxGeometry relative="1" as="geometry" />
        </mxCell>
        <mxCell id="0l5WWvCzSNFHq4BfdhfD-34" value="" style="shape=waypoint;sketch=0;fillStyle=solid;size=6;pointerEvents=1;points=[];fillColor=none;resizable=0;rotatable=0;perimeter=centerPerimeter;snapToPoint=1;fontFamily=Helvetica;fontSize=11;fontColor=default;labelBackgroundColor=default;" parent="1" vertex="1">
          <mxGeometry x="390" y="159.5" width="20" height="20" as="geometry" />
        </mxCell>
        <mxCell id="0l5WWvCzSNFHq4BfdhfD-38" value="V&lt;sub&gt;SOR&lt;/sub&gt;" style="text;strokeColor=none;align=center;fillColor=none;html=1;verticalAlign=middle;whiteSpace=wrap;rounded=0;fontFamily=Helvetica;fontSize=11;fontColor=default;labelBackgroundColor=default;convertToSvg=1;" parent="1" vertex="1">
          <mxGeometry x="500" y="222.5" width="60" height="15" as="geometry" />
        </mxCell>
        <mxCell id="0l5WWvCzSNFHq4BfdhfD-39" value="&lt;div align=&quot;left&quot;&gt;+&lt;/div&gt;" style="text;strokeColor=none;align=left;fillColor=none;html=1;verticalAlign=middle;whiteSpace=wrap;rounded=0;fontFamily=Helvetica;fontSize=14;fontColor=default;labelBackgroundColor=default;convertToSvg=1;" parent="1" vertex="1">
          <mxGeometry x="520" y="157" width="20" height="20" as="geometry" />
        </mxCell>
        <mxCell id="0l5WWvCzSNFHq4BfdhfD-40" value="-" style="text;strokeColor=none;align=left;fillColor=none;html=1;verticalAlign=middle;whiteSpace=wrap;rounded=0;fontFamily=Helvetica;fontSize=18;fontColor=default;labelBackgroundColor=default;convertToSvg=1;" parent="1" vertex="1">
          <mxGeometry x="520" y="270" width="20" height="27.5" as="geometry" />
        </mxCell>
      </root>
    </mxGraphModel>
  </diagram>
</mxfile>
